<svg width="600" height="500" viewBox="0 0 600 500" fill="none" xmlns="http://www.w3.org/2000/svg">
  <!-- Background -->
  <circle cx="500" cy="80" r="70" fill="#1DBF8A" opacity="0.1"/>
  <circle cx="100" cy="420" r="50" fill="#0F5CBA" opacity="0.1"/>
  
  <!-- Landing page mockup -->
  <rect x="120" y="80" width="360" height="340" rx="12" fill="white" stroke="#E5E7EB" stroke-width="3"/>
  
  <!-- Header -->
  <rect x="140" y="100" width="80" height="20" rx="4" fill="#0F5CBA" opacity="0.3"/>
  <rect x="380" y="100" width="80" height="20" rx="10" fill="#1DBF8A"/>
  
  <!-- Hero section -->
  <rect x="140" y="150" width="200" height="15" rx="4" fill="#1F2937"/>
  <rect x="140" y="175" width="280" height="10" rx="4" fill="#6B7280"/>
  <rect x="140" y="195" width="240" height="10" rx="4" fill="#6B7280"/>
  
  <!-- CTA Button -->
  <rect x="140" y="225" width="140" height="40" rx="20" fill="#1DBF8A"/>
  <rect x="160" y="237" width="100" height="16" rx="4" fill="white" opacity="0.8"/>
  
  <!-- Image placeholder -->
  <rect x="140" y="285" width="320" height="120" rx="8" fill="#E5E7EB"/>
  <circle cx="300" cy="345" r="30" fill="#9CA3AF" opacity="0.5"/>
  
  <!-- Decorative elements -->
  <circle cx="80" cy="200" r="25" fill="#8A3DD9" opacity="0.2"/>
  <rect x="500" y="280" width="50" height="50" rx="8" fill="#0F5CBA" opacity="0.2"/>
  
  <!-- Conversion arrow -->
  <path d="M 520 180 L 540 200 L 520 220" stroke="#1DBF8A" stroke-width="4" fill="none" stroke-linecap="round"/>
  <circle cx="560" cy="200" r="15" fill="#1DBF8A" opacity="0.3"/>
</svg>
