<svg width="600" height="500" viewBox="0 0 600 500" fill="none" xmlns="http://www.w3.org/2000/svg">
  <!-- Background -->
  <circle cx="100" cy="100" r="70" fill="#0F5CBA" opacity="0.1"/>
  <circle cx="500" cy="400" r="60" fill="#1DBF8A" opacity="0.1"/>
  
  <!-- Mobile phone -->
  <rect x="200" y="80" width="200" height="360" rx="20" fill="#1F2937"/>
  <rect x="210" y="100" width="180" height="320" rx="8" fill="white"/>
  
  <!-- Social media posts -->
  <!-- Post 1 -->
  <rect x="220" y="110" width="160" height="90" rx="8" fill="#E5E7EB"/>
  <circle cx="240" cy="130" r="12" fill="#0F5CBA"/>
  <rect x="260" y="125" width="80" height="6" rx="3" fill="#6B7280"/>
  <rect x="260" y="135" width="60" height="4" rx="2" fill="#9CA3AF"/>
  <rect x="220" y="150" width="160" height="40" rx="4" fill="#0F5CBA" opacity="0.2"/>
  
  <!-- Post 2 -->
  <rect x="220" y="210" width="160" height="90" rx="8" fill="#E5E7EB"/>
  <circle cx="240" cy="230" r="12" fill="#1DBF8A"/>
  <rect x="260" y="225" width="80" height="6" rx="3" fill="#6B7280"/>
  <rect x="260" y="235" width="60" height="4" rx="2" fill="#9CA3AF"/>
  <rect x="220" y="250" width="160" height="40" rx="4" fill="#1DBF8A" opacity="0.2"/>
  
  <!-- Post 3 -->
  <rect x="220" y="310" width="160" height="90" rx="8" fill="#E5E7EB"/>
  <circle cx="240" cy="330" r="12" fill="#8A3DD9"/>
  <rect x="260" y="325" width="80" height="6" rx="3" fill="#6B7280"/>
  <rect x="260" y="335" width="60" height="4" rx="2" fill="#9CA3AF"/>
  <rect x="220" y="350" width="160" height="40" rx="4" fill="#8A3DD9" opacity="0.2"/>
  
  <!-- Engagement icons -->
  <g transform="translate(450, 200)">
    <circle cx="0" cy="0" r="30" fill="#EF4444" opacity="0.2"/>
    <path d="M -10 -5 L 0 5 L 10 -5" fill="#EF4444"/>
  </g>
  
  <g transform="translate(520, 280)">
    <circle cx="0" cy="0" r="25" fill="#0F5CBA" opacity="0.2"/>
    <rect x="-8" y="-8" width="16" height="16" rx="2" fill="#0F5CBA"/>
  </g>
</svg>
